<mxfile host="app.diagrams.net" modified="2023-02-27T16:32:13.353Z" agent="5.0 (Windows NT 10.0; Win64; x64) AppleWebKit/537.36 (KHTML, like Gecko) Chrome/109.0.0.0 Safari/537.36" etag="wj_0LUmj5w5ynep9yV2g" version="20.8.23" type="github">
  <diagram name="Page-1" id="6_fGh7x0tYD3XKoFKpJo">
    <mxGraphModel dx="794" dy="1559" grid="1" gridSize="10" guides="1" tooltips="1" connect="1" arrows="1" fold="1" page="1" pageScale="1" pageWidth="850" pageHeight="1100" math="0" shadow="0">
      <root>
        <mxCell id="0" />
        <mxCell id="1" parent="0" />
        <mxCell id="Ja2fNAO9FKCu-JF6uZvL-3" value="&lt;table style=&quot;border-spacing: 0px; border-collapse: collapse; tab-size: 8; color: rgb(36, 41, 47); font-family: -apple-system, BlinkMacSystemFont, &amp;quot;Segoe UI&amp;quot;, &amp;quot;Noto Sans&amp;quot;, Helvetica, Arial, sans-serif, &amp;quot;Apple Color Emoji&amp;quot;, &amp;quot;Segoe UI Emoji&amp;quot;; font-size: 14px; text-align: start; background-color: rgb(255, 255, 255);&quot; data-tagsearch-path=&quot;0x08-recursion/1-print_rev_recursion.c&quot; data-tagsearch-lang=&quot;C&quot; data-paste-markdown-skip=&quot;&quot; data-tab-size=&quot;8&quot; class=&quot;highlight tab-size js-file-line-container js-code-nav-container js-tagsearch-file&quot; data-hpc=&quot;&quot;&gt;&lt;tbody style=&quot;box-sizing: border-box;&quot;&gt;&lt;tr style=&quot;box-sizing: border-box;&quot;&gt;&lt;td style=&quot;box-sizing: border-box; padding: 0px 10px; position: relative; line-height: 20px; vertical-align: top; overflow: visible; font-family: ui-monospace, SFMono-Regular, &amp;quot;SF Mono&amp;quot;, Menlo, Consolas, &amp;quot;Liberation Mono&amp;quot;, monospace; font-size: 12px; color: var(--color-fg-default); overflow-wrap: anywhere;&quot; class=&quot;blob-code blob-code-inner js-file-line&quot; id=&quot;LC1&quot;&gt;#include &lt;span style=&quot;box-sizing: border-box; color: var(--color-prettylights-syntax-string);&quot; class=&quot;pl-s&quot;&gt;&lt;span style=&quot;box-sizing: border-box; color: var(--color-prettylights-syntax-string);&quot; class=&quot;pl-pds&quot;&gt;&quot;&lt;/span&gt;main.h&lt;span style=&quot;box-sizing: border-box; color: var(--color-prettylights-syntax-string);&quot; class=&quot;pl-pds&quot;&gt;&quot;&lt;/span&gt;&lt;/span&gt;&lt;/td&gt;&lt;/tr&gt;&lt;tr style=&quot;box-sizing: border-box; background-color: transparent;&quot;&gt;&lt;td style=&quot;box-sizing: border-box; padding: 0px 10px; position: relative; width: 50px; min-width: 50px; font-family: ui-monospace, SFMono-Regular, &amp;quot;SF Mono&amp;quot;, Menlo, Consolas, &amp;quot;Liberation Mono&amp;quot;, monospace; font-size: 12px; line-height: 20px; color: var(--color-fg-subtle); text-align: right; vertical-align: top; cursor: pointer; user-select: none;&quot; data-line-number=&quot;2&quot; class=&quot;blob-num js-line-number js-code-nav-line-number js-blob-rnum&quot; id=&quot;L2&quot;&gt;&lt;/td&gt;&lt;td style=&quot;box-sizing: border-box; padding: 0px 10px; position: relative; line-height: 20px; vertical-align: top; overflow: visible; font-family: ui-monospace, SFMono-Regular, &amp;quot;SF Mono&amp;quot;, Menlo, Consolas, &amp;quot;Liberation Mono&amp;quot;, monospace; font-size: 12px; color: var(--color-fg-default); overflow-wrap: anywhere;&quot; class=&quot;blob-code blob-code-inner js-file-line&quot; id=&quot;LC2&quot;&gt;&lt;br&gt;&lt;/td&gt;&lt;/tr&gt;&lt;tr style=&quot;box-sizing: border-box;&quot;&gt;&lt;td style=&quot;box-sizing: border-box; padding: 0px 10px; position: relative; width: 50px; min-width: 50px; font-family: ui-monospace, SFMono-Regular, &amp;quot;SF Mono&amp;quot;, Menlo, Consolas, &amp;quot;Liberation Mono&amp;quot;, monospace; font-size: 12px; line-height: 20px; color: var(--color-fg-subtle); text-align: right; vertical-align: top; cursor: pointer; user-select: none;&quot; data-line-number=&quot;3&quot; class=&quot;blob-num js-line-number js-code-nav-line-number js-blob-rnum&quot; id=&quot;L3&quot;&gt;&lt;/td&gt;&lt;td style=&quot;box-sizing: border-box; padding: 0px 10px; position: relative; line-height: 20px; vertical-align: top; overflow: visible; font-family: ui-monospace, SFMono-Regular, &amp;quot;SF Mono&amp;quot;, Menlo, Consolas, &amp;quot;Liberation Mono&amp;quot;, monospace; font-size: 12px; color: var(--color-fg-default); overflow-wrap: anywhere;&quot; class=&quot;blob-code blob-code-inner js-file-line&quot; id=&quot;LC3&quot;&gt;&lt;br&gt;&lt;/td&gt;&lt;/tr&gt;&lt;tr style=&quot;box-sizing: border-box; background-color: transparent;&quot;&gt;&lt;td style=&quot;box-sizing: border-box; padding: 0px 10px; position: relative; width: 50px; min-width: 50px; font-family: ui-monospace, SFMono-Regular, &amp;quot;SF Mono&amp;quot;, Menlo, Consolas, &amp;quot;Liberation Mono&amp;quot;, monospace; font-size: 12px; line-height: 20px; color: var(--color-fg-subtle); text-align: right; vertical-align: top; cursor: pointer; user-select: none;&quot; data-line-number=&quot;4&quot; class=&quot;blob-num js-line-number js-code-nav-line-number js-blob-rnum&quot; id=&quot;L4&quot;&gt;&lt;/td&gt;&lt;td style=&quot;box-sizing: border-box; padding: 0px 10px; position: relative; line-height: 20px; vertical-align: top; overflow: visible; font-family: ui-monospace, SFMono-Regular, &amp;quot;SF Mono&amp;quot;, Menlo, Consolas, &amp;quot;Liberation Mono&amp;quot;, monospace; font-size: 12px; color: var(--color-fg-default); overflow-wrap: anywhere;&quot; class=&quot;blob-code blob-code-inner js-file-line&quot; id=&quot;LC4&quot;&gt;&lt;span style=&quot;box-sizing: border-box; color: var(--color-prettylights-syntax-comment);&quot; class=&quot;pl-c&quot;&gt;&lt;span style=&quot;box-sizing: border-box; color: var(--color-prettylights-syntax-comment);&quot; class=&quot;pl-c&quot;&gt;/*&lt;/span&gt;*&lt;/span&gt;&lt;/td&gt;&lt;/tr&gt;&lt;tr style=&quot;box-sizing: border-box;&quot;&gt;&lt;td style=&quot;box-sizing: border-box; padding: 0px 10px; position: relative; width: 50px; min-width: 50px; font-family: ui-monospace, SFMono-Regular, &amp;quot;SF Mono&amp;quot;, Menlo, Consolas, &amp;quot;Liberation Mono&amp;quot;, monospace; font-size: 12px; line-height: 20px; color: var(--color-fg-subtle); text-align: right; vertical-align: top; cursor: pointer; user-select: none;&quot; data-line-number=&quot;5&quot; class=&quot;blob-num js-line-number js-code-nav-line-number js-blob-rnum&quot; id=&quot;L5&quot;&gt;&lt;/td&gt;&lt;td style=&quot;box-sizing: border-box; padding: 0px 10px; position: relative; line-height: 20px; vertical-align: top; overflow: visible; font-family: ui-monospace, SFMono-Regular, &amp;quot;SF Mono&amp;quot;, Menlo, Consolas, &amp;quot;Liberation Mono&amp;quot;, monospace; font-size: 12px; color: var(--color-fg-default); overflow-wrap: anywhere;&quot; class=&quot;blob-code blob-code-inner js-file-line&quot; id=&quot;LC5&quot;&gt;&lt;span style=&quot;box-sizing: border-box; color: var(--color-prettylights-syntax-comment);&quot; class=&quot;pl-c&quot;&gt; * _print_rev_recursion - prints string in reverse&lt;/span&gt;&lt;/td&gt;&lt;/tr&gt;&lt;tr style=&quot;box-sizing: border-box; background-color: transparent;&quot;&gt;&lt;td style=&quot;box-sizing: border-box; padding: 0px 10px; position: relative; width: 50px; min-width: 50px; font-family: ui-monospace, SFMono-Regular, &amp;quot;SF Mono&amp;quot;, Menlo, Consolas, &amp;quot;Liberation Mono&amp;quot;, monospace; font-size: 12px; line-height: 20px; color: var(--color-fg-subtle); text-align: right; vertical-align: top; cursor: pointer; user-select: none;&quot; data-line-number=&quot;6&quot; class=&quot;blob-num js-line-number js-code-nav-line-number js-blob-rnum&quot; id=&quot;L6&quot;&gt;&lt;/td&gt;&lt;td style=&quot;box-sizing: border-box; padding: 0px 10px; position: relative; line-height: 20px; vertical-align: top; overflow: visible; font-family: ui-monospace, SFMono-Regular, &amp;quot;SF Mono&amp;quot;, Menlo, Consolas, &amp;quot;Liberation Mono&amp;quot;, monospace; font-size: 12px; color: var(--color-fg-default); overflow-wrap: anywhere;&quot; class=&quot;blob-code blob-code-inner js-file-line&quot; id=&quot;LC6&quot;&gt;&lt;span style=&quot;box-sizing: border-box; color: var(--color-prettylights-syntax-comment);&quot; class=&quot;pl-c&quot;&gt; * @s: pointer to the string&lt;/span&gt;&lt;/td&gt;&lt;/tr&gt;&lt;tr style=&quot;box-sizing: border-box;&quot;&gt;&lt;td style=&quot;box-sizing: border-box; padding: 0px 10px; position: relative; width: 50px; min-width: 50px; font-family: ui-monospace, SFMono-Regular, &amp;quot;SF Mono&amp;quot;, Menlo, Consolas, &amp;quot;Liberation Mono&amp;quot;, monospace; font-size: 12px; line-height: 20px; color: var(--color-fg-subtle); text-align: right; vertical-align: top; cursor: pointer; user-select: none;&quot; data-line-number=&quot;7&quot; class=&quot;blob-num js-line-number js-code-nav-line-number js-blob-rnum&quot; id=&quot;L7&quot;&gt;&lt;/td&gt;&lt;td style=&quot;box-sizing: border-box; padding: 0px 10px; position: relative; line-height: 20px; vertical-align: top; overflow: visible; font-family: ui-monospace, SFMono-Regular, &amp;quot;SF Mono&amp;quot;, Menlo, Consolas, &amp;quot;Liberation Mono&amp;quot;, monospace; font-size: 12px; color: var(--color-fg-default); overflow-wrap: anywhere;&quot; class=&quot;blob-code blob-code-inner js-file-line&quot; id=&quot;LC7&quot;&gt;&lt;span style=&quot;box-sizing: border-box; color: var(--color-prettylights-syntax-comment);&quot; class=&quot;pl-c&quot;&gt; * Return: void&lt;/span&gt;&lt;/td&gt;&lt;/tr&gt;&lt;tr style=&quot;box-sizing: border-box; background-color: transparent;&quot;&gt;&lt;td style=&quot;box-sizing: border-box; padding: 0px 10px; position: relative; width: 50px; min-width: 50px; font-family: ui-monospace, SFMono-Regular, &amp;quot;SF Mono&amp;quot;, Menlo, Consolas, &amp;quot;Liberation Mono&amp;quot;, monospace; font-size: 12px; line-height: 20px; color: var(--color-fg-subtle); text-align: right; vertical-align: top; cursor: pointer; user-select: none;&quot; data-line-number=&quot;8&quot; class=&quot;blob-num js-line-number js-code-nav-line-number js-blob-rnum&quot; id=&quot;L8&quot;&gt;&lt;/td&gt;&lt;td style=&quot;box-sizing: border-box; padding: 0px 10px; position: relative; line-height: 20px; vertical-align: top; overflow: visible; font-family: ui-monospace, SFMono-Regular, &amp;quot;SF Mono&amp;quot;, Menlo, Consolas, &amp;quot;Liberation Mono&amp;quot;, monospace; font-size: 12px; color: var(--color-fg-default); overflow-wrap: anywhere;&quot; class=&quot;blob-code blob-code-inner js-file-line&quot; id=&quot;LC8&quot;&gt;&lt;span style=&quot;box-sizing: border-box; color: var(--color-prettylights-syntax-comment);&quot; class=&quot;pl-c&quot;&gt; &lt;span style=&quot;box-sizing: border-box; color: var(--color-prettylights-syntax-comment);&quot; class=&quot;pl-c&quot;&gt;*/&lt;/span&gt;&lt;/span&gt;&lt;/td&gt;&lt;/tr&gt;&lt;tr style=&quot;box-sizing: border-box;&quot;&gt;&lt;td style=&quot;box-sizing: border-box; padding: 0px 10px; position: relative; width: 50px; min-width: 50px; font-family: ui-monospace, SFMono-Regular, &amp;quot;SF Mono&amp;quot;, Menlo, Consolas, &amp;quot;Liberation Mono&amp;quot;, monospace; font-size: 12px; line-height: 20px; color: var(--color-fg-subtle); text-align: right; vertical-align: top; cursor: pointer; user-select: none;&quot; data-line-number=&quot;9&quot; class=&quot;blob-num js-line-number js-code-nav-line-number js-blob-rnum&quot; id=&quot;L9&quot;&gt;&lt;/td&gt;&lt;td style=&quot;box-sizing: border-box; padding: 0px 10px; position: relative; line-height: 20px; vertical-align: top; overflow: visible; font-family: ui-monospace, SFMono-Regular, &amp;quot;SF Mono&amp;quot;, Menlo, Consolas, &amp;quot;Liberation Mono&amp;quot;, monospace; font-size: 12px; color: var(--color-fg-default); overflow-wrap: anywhere;&quot; class=&quot;blob-code blob-code-inner js-file-line&quot; id=&quot;LC9&quot;&gt;&lt;br&gt;&lt;/td&gt;&lt;/tr&gt;&lt;tr style=&quot;box-sizing: border-box; background-color: transparent;&quot;&gt;&lt;td style=&quot;box-sizing: border-box; padding: 0px 10px; position: relative; width: 50px; min-width: 50px; font-family: ui-monospace, SFMono-Regular, &amp;quot;SF Mono&amp;quot;, Menlo, Consolas, &amp;quot;Liberation Mono&amp;quot;, monospace; font-size: 12px; line-height: 20px; color: var(--color-fg-subtle); text-align: right; vertical-align: top; cursor: pointer; user-select: none;&quot; data-line-number=&quot;10&quot; class=&quot;blob-num js-line-number js-code-nav-line-number js-blob-rnum&quot; id=&quot;L10&quot;&gt;&lt;/td&gt;&lt;td style=&quot;box-sizing: border-box; padding: 0px 10px; position: relative; line-height: 20px; vertical-align: top; overflow: visible; font-family: ui-monospace, SFMono-Regular, &amp;quot;SF Mono&amp;quot;, Menlo, Consolas, &amp;quot;Liberation Mono&amp;quot;, monospace; font-size: 12px; color: var(--color-fg-default); overflow-wrap: anywhere;&quot; class=&quot;blob-code blob-code-inner js-file-line&quot; id=&quot;LC10&quot;&gt;&lt;span style=&quot;box-sizing: border-box; color: var(--color-prettylights-syntax-keyword);&quot; class=&quot;pl-k&quot;&gt;void&lt;/span&gt; &lt;span style=&quot;box-sizing: border-box; color: var(--color-prettylights-syntax-entity);&quot; class=&quot;pl-en&quot;&gt;_print_rev_recursion&lt;/span&gt;(&lt;span style=&quot;box-sizing: border-box; color: var(--color-prettylights-syntax-keyword);&quot; class=&quot;pl-k&quot;&gt;char&lt;/span&gt; *s)&lt;/td&gt;&lt;/tr&gt;&lt;tr style=&quot;box-sizing: border-box;&quot;&gt;&lt;td style=&quot;box-sizing: border-box; padding: 0px 10px; position: relative; width: 50px; min-width: 50px; font-family: ui-monospace, SFMono-Regular, &amp;quot;SF Mono&amp;quot;, Menlo, Consolas, &amp;quot;Liberation Mono&amp;quot;, monospace; font-size: 12px; line-height: 20px; color: var(--color-fg-subtle); text-align: right; vertical-align: top; cursor: pointer; user-select: none;&quot; data-line-number=&quot;11&quot; class=&quot;blob-num js-line-number js-code-nav-line-number js-blob-rnum&quot; id=&quot;L11&quot;&gt;&lt;/td&gt;&lt;td style=&quot;box-sizing: border-box; padding: 0px 10px; position: relative; line-height: 20px; vertical-align: top; overflow: visible; font-family: ui-monospace, SFMono-Regular, &amp;quot;SF Mono&amp;quot;, Menlo, Consolas, &amp;quot;Liberation Mono&amp;quot;, monospace; font-size: 12px; color: var(--color-fg-default); overflow-wrap: anywhere;&quot; class=&quot;blob-code blob-code-inner js-file-line&quot; id=&quot;LC11&quot;&gt;{&lt;/td&gt;&lt;/tr&gt;&lt;tr style=&quot;box-sizing: border-box; background-color: transparent;&quot;&gt;&lt;td style=&quot;box-sizing: border-box; padding: 0px 10px; position: relative; width: 50px; min-width: 50px; font-family: ui-monospace, SFMono-Regular, &amp;quot;SF Mono&amp;quot;, Menlo, Consolas, &amp;quot;Liberation Mono&amp;quot;, monospace; font-size: 12px; line-height: 20px; color: var(--color-fg-subtle); text-align: right; vertical-align: top; cursor: pointer; user-select: none;&quot; data-line-number=&quot;12&quot; class=&quot;blob-num js-line-number js-code-nav-line-number js-blob-rnum&quot; id=&quot;L12&quot;&gt;&lt;/td&gt;&lt;td style=&quot;box-sizing: border-box; padding: 0px 10px; position: relative; line-height: 20px; vertical-align: top; overflow: visible; font-family: ui-monospace, SFMono-Regular, &amp;quot;SF Mono&amp;quot;, Menlo, Consolas, &amp;quot;Liberation Mono&amp;quot;, monospace; font-size: 12px; color: var(--color-fg-default); overflow-wrap: anywhere;&quot; class=&quot;blob-code blob-code-inner js-file-line&quot; id=&quot;LC12&quot;&gt;&lt;span style=&quot;box-sizing: border-box; color: var(--color-prettylights-syntax-keyword);&quot; class=&quot;pl-k&quot;&gt;if&lt;/span&gt; (*s !=&amp;nbsp;&lt;span style=&quot;box-sizing: border-box; color: var(--color-prettylights-syntax-string);&quot; class=&quot;pl-s&quot;&gt;&lt;span style=&quot;box-sizing: border-box; color: var(--color-prettylights-syntax-string);&quot; class=&quot;pl-pds&quot;&gt;&#39;&lt;/span&gt;&lt;span style=&quot;box-sizing: border-box;&quot; class=&quot;pl-cce&quot;&gt;\0&lt;/span&gt;&lt;span style=&quot;box-sizing: border-box; color: var(--color-prettylights-syntax-string);&quot; class=&quot;pl-pds&quot;&gt;&#39;&lt;/span&gt;&lt;/span&gt;)&lt;/td&gt;&lt;/tr&gt;&lt;tr style=&quot;box-sizing: border-box;&quot;&gt;&lt;td style=&quot;box-sizing: border-box; padding: 0px 10px; position: relative; width: 50px; min-width: 50px; font-family: ui-monospace, SFMono-Regular, &amp;quot;SF Mono&amp;quot;, Menlo, Consolas, &amp;quot;Liberation Mono&amp;quot;, monospace; font-size: 12px; line-height: 20px; color: var(--color-fg-subtle); text-align: right; vertical-align: top; cursor: pointer; user-select: none;&quot; data-line-number=&quot;13&quot; class=&quot;blob-num js-line-number js-code-nav-line-number js-blob-rnum&quot; id=&quot;L13&quot;&gt;&lt;/td&gt;&lt;td style=&quot;box-sizing: border-box; padding: 0px 10px; position: relative; line-height: 20px; vertical-align: top; overflow: visible; font-family: ui-monospace, SFMono-Regular, &amp;quot;SF Mono&amp;quot;, Menlo, Consolas, &amp;quot;Liberation Mono&amp;quot;, monospace; font-size: 12px; color: var(--color-fg-default); overflow-wrap: anywhere;&quot; class=&quot;blob-code blob-code-inner js-file-line&quot; id=&quot;LC13&quot;&gt;{&lt;/td&gt;&lt;/tr&gt;&lt;tr style=&quot;box-sizing: border-box; background-color: transparent;&quot;&gt;&lt;td style=&quot;box-sizing: border-box; padding: 0px 10px; position: relative; width: 50px; min-width: 50px; font-family: ui-monospace, SFMono-Regular, &amp;quot;SF Mono&amp;quot;, Menlo, Consolas, &amp;quot;Liberation Mono&amp;quot;, monospace; font-size: 12px; line-height: 20px; color: var(--color-fg-subtle); text-align: right; vertical-align: top; cursor: pointer; user-select: none;&quot; data-line-number=&quot;14&quot; class=&quot;blob-num js-line-number js-code-nav-line-number js-blob-rnum&quot; id=&quot;L14&quot;&gt;&lt;/td&gt;&lt;td style=&quot;box-sizing: border-box; padding: 0px 10px; position: relative; line-height: 20px; vertical-align: top; overflow: visible; font-family: ui-monospace, SFMono-Regular, &amp;quot;SF Mono&amp;quot;, Menlo, Consolas, &amp;quot;Liberation Mono&amp;quot;, monospace; font-size: 12px; color: var(--color-fg-default); overflow-wrap: anywhere;&quot; class=&quot;blob-code blob-code-inner js-file-line&quot; id=&quot;LC14&quot;&gt;	&lt;span style=&quot;box-sizing: border-box; color: var(--color-prettylights-syntax-constant);&quot; class=&quot;pl-c1&quot;&gt;_print_rev_recursion&lt;/span&gt;(s + &lt;span style=&quot;box-sizing: border-box; color: var(--color-prettylights-syntax-constant);&quot; class=&quot;pl-c1&quot;&gt;1&lt;/span&gt;);&lt;/td&gt;&lt;/tr&gt;&lt;tr style=&quot;box-sizing: border-box;&quot;&gt;&lt;td style=&quot;box-sizing: border-box; padding: 0px 10px; position: relative; width: 50px; min-width: 50px; font-family: ui-monospace, SFMono-Regular, &amp;quot;SF Mono&amp;quot;, Menlo, Consolas, &amp;quot;Liberation Mono&amp;quot;, monospace; font-size: 12px; line-height: 20px; color: var(--color-fg-subtle); text-align: right; vertical-align: top; cursor: pointer; user-select: none;&quot; data-line-number=&quot;15&quot; class=&quot;blob-num js-line-number js-code-nav-line-number js-blob-rnum&quot; id=&quot;L15&quot;&gt;&lt;/td&gt;&lt;td style=&quot;box-sizing: border-box; padding: 0px 10px; position: relative; line-height: 20px; vertical-align: top; overflow: visible; font-family: ui-monospace, SFMono-Regular, &amp;quot;SF Mono&amp;quot;, Menlo, Consolas, &amp;quot;Liberation Mono&amp;quot;, monospace; font-size: 12px; color: var(--color-fg-default); overflow-wrap: anywhere;&quot; class=&quot;blob-code blob-code-inner js-file-line&quot; id=&quot;LC15&quot;&gt;	&lt;span style=&quot;box-sizing: border-box; color: var(--color-prettylights-syntax-constant);&quot; class=&quot;pl-c1&quot;&gt;_putchar&lt;/span&gt;(*s);&lt;/td&gt;&lt;/tr&gt;&lt;tr style=&quot;box-sizing: border-box; background-color: transparent;&quot;&gt;&lt;td style=&quot;box-sizing: border-box; padding: 0px 10px; position: relative; width: 50px; min-width: 50px; font-family: ui-monospace, SFMono-Regular, &amp;quot;SF Mono&amp;quot;, Menlo, Consolas, &amp;quot;Liberation Mono&amp;quot;, monospace; font-size: 12px; line-height: 20px; color: var(--color-fg-subtle); text-align: right; vertical-align: top; cursor: pointer; user-select: none;&quot; data-line-number=&quot;16&quot; class=&quot;blob-num js-line-number js-code-nav-line-number js-blob-rnum&quot; id=&quot;L16&quot;&gt;&lt;/td&gt;&lt;td style=&quot;box-sizing: border-box; padding: 0px 10px; position: relative; line-height: 20px; vertical-align: top; overflow: visible; font-family: ui-monospace, SFMono-Regular, &amp;quot;SF Mono&amp;quot;, Menlo, Consolas, &amp;quot;Liberation Mono&amp;quot;, monospace; font-size: 12px; color: var(--color-fg-default); overflow-wrap: anywhere;&quot; class=&quot;blob-code blob-code-inner js-file-line&quot; id=&quot;LC16&quot;&gt;}&lt;/td&gt;&lt;/tr&gt;&lt;tr style=&quot;box-sizing: border-box;&quot;&gt;&lt;td style=&quot;box-sizing: border-box; padding: 0px 10px; position: relative; width: 50px; min-width: 50px; font-family: ui-monospace, SFMono-Regular, &amp;quot;SF Mono&amp;quot;, Menlo, Consolas, &amp;quot;Liberation Mono&amp;quot;, monospace; font-size: 12px; line-height: 20px; color: var(--color-fg-subtle); text-align: right; vertical-align: top; cursor: pointer; user-select: none;&quot; data-line-number=&quot;17&quot; class=&quot;blob-num js-line-number js-code-nav-line-number js-blob-rnum&quot; id=&quot;L17&quot;&gt;&lt;/td&gt;&lt;td style=&quot;box-sizing: border-box; padding: 0px 10px; position: relative; line-height: 20px; vertical-align: top; overflow: visible; font-family: ui-monospace, SFMono-Regular, &amp;quot;SF Mono&amp;quot;, Menlo, Consolas, &amp;quot;Liberation Mono&amp;quot;, monospace; font-size: 12px; color: var(--color-fg-default); overflow-wrap: anywhere;&quot; class=&quot;blob-code blob-code-inner js-file-line&quot; id=&quot;LC17&quot;&gt;&lt;br&gt;&lt;/td&gt;&lt;/tr&gt;&lt;tr style=&quot;box-sizing: border-box; background-color: transparent;&quot;&gt;&lt;td style=&quot;box-sizing: border-box; padding: 0px 10px; position: relative; width: 50px; min-width: 50px; font-family: ui-monospace, SFMono-Regular, &amp;quot;SF Mono&amp;quot;, Menlo, Consolas, &amp;quot;Liberation Mono&amp;quot;, monospace; font-size: 12px; line-height: 20px; color: var(--color-fg-subtle); text-align: right; vertical-align: top; cursor: pointer; user-select: none;&quot; data-line-number=&quot;18&quot; class=&quot;blob-num js-line-number js-code-nav-line-number js-blob-rnum&quot; id=&quot;L18&quot;&gt;&lt;/td&gt;&lt;td style=&quot;box-sizing: border-box; padding: 0px 10px; position: relative; line-height: 20px; vertical-align: top; overflow: visible; font-family: ui-monospace, SFMono-Regular, &amp;quot;SF Mono&amp;quot;, Menlo, Consolas, &amp;quot;Liberation Mono&amp;quot;, monospace; font-size: 12px; color: var(--color-fg-default); overflow-wrap: anywhere;&quot; class=&quot;blob-code blob-code-inner js-file-line&quot; id=&quot;LC18&quot;&gt;}&lt;/td&gt;&lt;/tr&gt;&lt;/tbody&gt;&lt;/table&gt;" style="whiteSpace=wrap;html=1;aspect=fixed;strokeColor=#fffffff;" vertex="1" parent="1">
          <mxGeometry width="370" height="370" as="geometry" />
        </mxCell>
        <mxCell id="Ja2fNAO9FKCu-JF6uZvL-6" style="edgeStyle=orthogonalEdgeStyle;rounded=0;orthogonalLoop=1;jettySize=auto;html=1;" edge="1" parent="1" source="Ja2fNAO9FKCu-JF6uZvL-4">
          <mxGeometry relative="1" as="geometry">
            <mxPoint x="620" y="365" as="targetPoint" />
          </mxGeometry>
        </mxCell>
        <mxCell id="Ja2fNAO9FKCu-JF6uZvL-7" value="TRUE" style="edgeLabel;html=1;align=center;verticalAlign=middle;resizable=0;points=[];" vertex="1" connectable="0" parent="Ja2fNAO9FKCu-JF6uZvL-6">
          <mxGeometry x="-0.2667" y="1" relative="1" as="geometry">
            <mxPoint as="offset" />
          </mxGeometry>
        </mxCell>
        <mxCell id="Ja2fNAO9FKCu-JF6uZvL-8" value="FALSE" style="edgeStyle=orthogonalEdgeStyle;rounded=0;orthogonalLoop=1;jettySize=auto;html=1;exitX=0.5;exitY=1;exitDx=0;exitDy=0;" edge="1" parent="1" source="Ja2fNAO9FKCu-JF6uZvL-4">
          <mxGeometry relative="1" as="geometry">
            <mxPoint x="440" y="500" as="targetPoint" />
            <Array as="points">
              <mxPoint x="440" y="450" />
              <mxPoint x="440" y="450" />
            </Array>
          </mxGeometry>
        </mxCell>
        <mxCell id="Ja2fNAO9FKCu-JF6uZvL-4" value="IS *S A NULL&lt;br&gt;CHARACTER?" style="rhombus;whiteSpace=wrap;html=1;strokeColor=#fffffff;fillColor=#007FFF;" vertex="1" parent="1">
          <mxGeometry x="380" y="310" width="120" height="110" as="geometry" />
        </mxCell>
        <mxCell id="Ja2fNAO9FKCu-JF6uZvL-10" value="CALL THE FUNCTION&amp;nbsp;" style="rounded=0;whiteSpace=wrap;html=1;strokeColor=#fffffff;fillColor=#007FFF;" vertex="1" parent="1">
          <mxGeometry x="380" y="500" width="120" height="60" as="geometry" />
        </mxCell>
        <mxCell id="Ja2fNAO9FKCu-JF6uZvL-11" value="" style="endArrow=classic;html=1;rounded=0;" edge="1" parent="1">
          <mxGeometry width="50" height="50" relative="1" as="geometry">
            <mxPoint x="439.5" y="230" as="sourcePoint" />
            <mxPoint x="439.5" y="310" as="targetPoint" />
          </mxGeometry>
        </mxCell>
        <mxCell id="Ja2fNAO9FKCu-JF6uZvL-12" value="CONTROL" style="rounded=0;whiteSpace=wrap;html=1;strokeColor=#fffffff;fillColor=#007FFF;" vertex="1" parent="1">
          <mxGeometry x="380" y="180" width="120" height="60" as="geometry" />
        </mxCell>
        <mxCell id="Ja2fNAO9FKCu-JF6uZvL-13" value="END&amp;nbsp;" style="rounded=0;whiteSpace=wrap;html=1;strokeColor=#fffffff;fillColor=#007FFF;" vertex="1" parent="1">
          <mxGeometry x="620" y="335" width="120" height="60" as="geometry" />
        </mxCell>
        <mxCell id="Ja2fNAO9FKCu-JF6uZvL-14" value="HELLO" style="rounded=0;whiteSpace=wrap;html=1;strokeColor=#fffffff;fillColor=#007FFF;" vertex="1" parent="1">
          <mxGeometry x="220" y="610" width="480" height="60" as="geometry" />
        </mxCell>
      </root>
    </mxGraphModel>
  </diagram>
</mxfile>
